<?xml version="1.0" standalone="no"?>
<!DOCTYPE svg PUBLIC "-//W3C//DTD SVG 20010904//EN"
 "http://www.w3.org/TR/2001/REC-SVG-20010904/DTD/svg10.dtd">
<svg version="1.0" xmlns="http://www.w3.org/2000/svg"
 width="539.000000pt" height="497.000000pt" viewBox="0 0 539.000000 497.000000"
 preserveAspectRatio="xMidYMid meet">

<g transform="translate(0.000000,497.000000) scale(0.100000,-0.100000)"
fill="#000000" stroke="none">
<path d="M3563 4423 c-13 -2 -23 -9 -23 -14 0 -5 -9 -9 -20 -9 -27 0 -100 -23
-100 -32 0 -3 -17 -12 -37 -18 -21 -7 -42 -17 -48 -24 -5 -6 -23 -17 -38 -24
-28 -12 -41 -21 -77 -54 -10 -9 -29 -22 -42 -29 -13 -6 -30 -18 -38 -25 -8 -8
-33 -30 -54 -49 -21 -19 -42 -35 -45 -35 -3 0 -17 -16 -30 -36 -14 -20 -35
-40 -48 -45 -13 -5 -23 -15 -23 -24 0 -8 -4 -15 -9 -15 -13 0 -71 -62 -71 -75
0 -5 -14 -21 -31 -36 -30 -25 -36 -26 -196 -32 -91 -3 -169 -10 -172 -15 -3
-5 -46 -14 -95 -20 -49 -7 -92 -16 -95 -20 -3 -5 -19 -12 -36 -15 -102 -18
-153 -31 -149 -38 3 -5 -14 -12 -36 -15 -23 -4 -47 -13 -54 -20 -7 -7 -32 -17
-54 -24 -23 -6 -42 -15 -42 -20 0 -6 -7 -10 -15 -10 -18 0 -86 -31 -103 -47
-7 -7 -19 -13 -26 -13 -7 0 -23 -9 -36 -20 -13 -11 -29 -20 -36 -20 -7 0 -25
-11 -40 -25 -15 -14 -32 -25 -38 -25 -6 0 -21 -11 -33 -24 -22 -22 -26 -23
-155 -18 -141 5 -478 -15 -478 -29 0 -4 -27 -11 -61 -15 -33 -4 -66 -13 -74
-20 -7 -8 -20 -14 -28 -14 -24 0 -107 -32 -107 -41 0 -5 -6 -9 -14 -9 -26 0
-94 -74 -110 -120 -22 -64 -20 -197 4 -311 12 -52 24 -106 27 -121 3 -16 9
-28 13 -28 4 0 17 -34 29 -75 13 -41 26 -75 29 -75 4 0 20 -36 37 -80 16 -44
32 -80 36 -80 3 0 19 -30 34 -67 16 -38 33 -70 37 -71 5 -2 18 -25 29 -50 11
-26 28 -53 37 -60 13 -10 17 -46 23 -206 7 -185 33 -395 50 -406 7 -5 24 -61
36 -121 4 -23 -16 -70 -37 -89 -24 -20 -66 -250 -55 -303 14 -68 8 -65 110
-69 80 -2 96 -6 108 -23 13 -17 27 -19 143 -20 93 0 128 -3 132 -12 5 -17 69
-17 74 -1 3 8 36 12 107 13 78 1 106 4 115 15 6 8 18 16 26 18 21 5 50 33 50
49 0 7 4 13 8 13 39 0 41 272 2 310 -3 3 -14 21 -24 40 -27 51 -104 124 -162
154 -69 36 -151 49 -269 43 -97 -4 -185 -22 -185 -37 0 -4 -13 -13 -30 -20
-16 -7 -30 -16 -30 -21 0 -5 -9 -9 -20 -9 -11 0 -20 6 -20 14 0 8 -6 16 -14
19 -7 3 -17 27 -21 54 -5 26 -10 55 -11 63 -2 8 -9 61 -16 118 -7 56 -16 102
-20 102 -4 0 -8 69 -8 153 0 143 -2 157 -24 202 -14 26 -29 51 -34 54 -10 7
-62 116 -62 131 0 6 -3 10 -8 10 -8 0 -52 91 -52 108 0 6 -6 17 -14 24 -7 8
-26 50 -41 93 -15 44 -30 82 -34 85 -4 3 -18 50 -31 105 -13 55 -28 103 -33
106 -13 9 -12 232 2 237 6 2 18 19 27 38 12 24 29 40 55 51 22 8 39 18 39 22
0 4 23 14 50 21 28 7 50 17 50 21 0 7 85 24 172 35 32 3 58 10 58 15 0 5 117
9 263 9 249 0 264 1 285 20 12 11 24 20 27 20 5 0 86 52 120 77 28 21 75 43
90 43 9 0 14 4 10 9 -3 6 10 13 30 17 19 3 39 12 43 19 4 6 34 20 67 31 33 10
66 23 72 30 7 7 31 15 53 19 22 4 40 10 40 14 0 4 32 13 70 20 38 7 70 16 70
20 0 9 120 29 215 37 39 3 79 10 90 14 11 5 73 11 137 12 l117 3 30 35 c17 19
30 41 31 48 0 7 5 10 10 7 6 -3 13 2 17 12 7 18 120 131 213 213 29 25 63 55
77 68 14 12 31 22 38 22 7 0 23 11 36 24 13 13 34 26 47 30 12 4 22 11 22 16
0 4 11 11 24 14 14 3 31 12 38 20 23 22 139 46 226 46 99 0 140 -17 173 -72
13 -22 30 -46 38 -54 7 -8 25 -47 38 -87 14 -40 28 -74 32 -77 9 -6 48 -184
57 -257 4 -29 10 -50 15 -47 5 3 9 2 9 -3 0 -4 5 -46 10 -93 16 -135 40 -429
40 -497 0 -35 4 -63 10 -63 6 0 10 -7 10 -15 0 -17 51 -118 62 -123 4 -2 17
-24 28 -50 12 -25 24 -49 29 -52 9 -6 61 -140 61 -157 0 -6 4 -13 10 -15 10
-3 60 -181 60 -216 0 -13 4 -21 9 -18 10 7 20 -65 27 -214 6 -114 -8 -293 -25
-315 -5 -5 -12 -30 -15 -55 -6 -39 -23 -97 -32 -109 -7 -8 -32 28 -57 82 -14
31 -30 57 -34 57 -4 0 -14 15 -22 33 -25 58 -155 187 -188 187 -7 0 -13 4 -13
8 0 11 -46 32 -70 32 -10 0 -20 6 -22 13 -4 9 -38 12 -128 12 -90 0 -124 -3
-127 -12 -3 -7 -13 -13 -23 -13 -24 0 -70 -21 -70 -32 0 -4 -6 -8 -14 -8 -18
0 -123 -105 -131 -131 -4 -10 -10 -19 -14 -19 -4 0 -16 -24 -26 -52 -34 -92
-21 -235 25 -288 11 -13 20 -27 20 -32 0 -5 16 -16 36 -24 21 -9 43 -22 51
-30 8 -8 21 -14 29 -14 8 0 14 -10 15 -22 2 -55 -3 -123 -10 -128 -5 -3 -11
-48 -14 -100 -4 -52 -13 -133 -22 -179 -9 -46 -14 -90 -11 -97 4 -12 78 -14
428 -14 251 0 429 4 438 10 13 8 15 44 14 236 -1 131 -5 229 -11 233 -17 11
-33 164 -21 207 5 22 14 41 18 44 12 7 47 183 55 273 4 42 11 77 16 77 5 0 9
52 9 116 0 63 -4 113 -9 110 -5 -3 -11 27 -15 67 -8 82 -45 269 -55 277 -3 3
-19 43 -35 90 -15 47 -31 87 -35 90 -4 3 -18 32 -31 65 -12 33 -28 65 -34 70
-7 6 -20 28 -30 50 -10 22 -25 45 -33 52 -18 14 -27 80 -49 378 -9 121 -20
222 -24 225 -4 3 -11 32 -15 65 -13 121 -46 285 -56 285 -5 0 -9 8 -9 17 0 22
-50 167 -60 173 -4 3 -17 26 -28 51 -23 51 -92 124 -125 135 -12 4 -25 12 -29
18 -7 11 -144 18 -185 9z m277 -2283 c0 -5 8 -10 18 -10 19 0 102 -29 87 -30
-9 -1 42 -33 55 -35 9 -1 100 -94 100 -102 0 -4 16 -26 35 -47 19 -22 37 -53
40 -68 4 -16 12 -34 19 -41 14 -14 53 -133 63 -189 3 -21 9 -38 13 -38 23 0
41 -470 20 -511 -10 -18 -25 -19 -375 -19 -215 0 -366 4 -370 9 -3 5 0 49 6
98 6 48 14 151 18 229 7 125 10 143 29 162 23 23 42 29 42 12 0 -17 149 -12
166 5 11 11 37 15 94 15 90 0 117 8 154 45 45 45 61 165 22 165 -15 0 -36 -41
-36 -71 0 -10 -13 -33 -29 -50 -53 -55 -141 -48 -141 12 0 10 -4 19 -10 19 -5
0 -10 18 -10 39 0 42 -16 63 -31 40 -5 -8 -9 -45 -9 -82 0 -60 -2 -70 -20 -74
-11 -3 -20 -9 -20 -14 0 -5 -20 -9 -45 -9 -25 0 -45 4 -45 9 0 5 -10 11 -22
14 -24 6 -58 70 -58 107 0 11 -10 30 -21 41 -36 36 -50 -7 -28 -85 14 -50 5
-86 -21 -86 -11 0 -20 5 -20 10 0 6 -8 10 -19 10 -24 0 -69 45 -87 88 -17 41
-18 150 -3 189 30 72 41 93 48 93 5 0 21 18 36 40 15 22 33 40 39 40 7 0 22 9
34 20 12 11 28 20 36 20 8 0 18 5 21 10 3 6 17 10 31 10 13 0 24 5 24 10 0 6
35 10 85 10 50 0 85 -4 85 -10z m-2389 -600 c30 -6 56 -15 57 -20 2 -6 10 -10
18 -10 20 0 75 -36 67 -43 -3 -4 1 -7 9 -7 14 0 68 -60 68 -76 0 -4 7 -12 15
-18 8 -6 21 -38 30 -71 38 -149 1 -249 -106 -287 -44 -15 -63 5 -49 52 16 55
13 120 -6 127 -23 9 -33 -7 -40 -62 -12 -102 -34 -125 -120 -125 -58 0 -75 16
-68 63 4 20 11 37 15 37 12 0 11 67 -1 75 -5 3 -10 15 -10 26 0 14 -6 19 -17
17 -15 -3 -19 -16 -21 -78 -3 -71 -5 -77 -38 -107 -36 -35 -68 -41 -121 -23
-31 11 -63 62 -63 100 0 21 -33 60 -50 60 -6 0 -10 -26 -10 -59 0 -51 -3 -59
-21 -64 -12 -3 -32 -1 -45 5 -21 10 -24 18 -24 65 0 29 4 53 9 53 4 0 11 20
14 44 10 71 48 169 74 189 12 10 23 25 23 33 0 8 5 14 11 14 6 0 24 14 41 30
16 17 38 30 48 30 10 0 20 5 22 10 8 25 193 38 289 20z"/>
<path d="M3575 4135 c-5 -2 -27 -6 -47 -10 -21 -3 -43 -11 -50 -18 -7 -7 -28
-19 -45 -26 -18 -7 -33 -17 -33 -22 0 -5 -6 -9 -13 -9 -12 0 -52 -30 -98 -72
-10 -9 -32 -24 -49 -33 -17 -9 -28 -20 -25 -25 4 -6 2 -10 -3 -10 -5 0 -33
-22 -62 -49 l-53 -50 26 -7 c15 -3 27 -10 27 -15 0 -5 7 -9 17 -9 21 0 127
-32 133 -41 3 -4 24 -12 48 -19 23 -7 42 -17 42 -21 0 -4 17 -13 37 -20 20 -6
46 -20 57 -30 11 -11 28 -19 38 -19 10 0 26 -9 35 -20 10 -11 22 -20 29 -20 6
0 24 -11 40 -25 16 -14 35 -25 42 -25 7 0 15 -7 18 -15 3 -8 16 -17 27 -21 12
-4 32 -17 44 -30 12 -13 32 -24 44 -24 20 0 21 4 15 53 -3 28 -8 85 -12 125
-4 39 -10 72 -14 72 -4 0 -10 30 -13 68 -7 79 -37 212 -49 212 -4 0 -8 7 -8
15 0 8 -11 39 -24 69 -21 47 -29 56 -63 65 -40 11 -42 12 -58 6z"/>
<path d="M996 3190 c-43 -4 -81 -12 -85 -18 -3 -5 -21 -13 -39 -17 -18 -4 -48
-21 -65 -38 -29 -28 -32 -37 -32 -90 1 -32 6 -61 12 -65 5 -4 13 -18 17 -32
15 -51 50 -135 63 -148 7 -7 13 -18 13 -23 0 -13 41 -103 50 -109 3 -3 9 -13
13 -22 10 -27 34 -11 41 28 4 19 11 34 16 34 6 0 10 7 10 15 0 15 40 106 51
115 3 3 19 32 34 65 16 33 33 62 37 63 5 2 20 25 33 52 13 26 31 50 40 53 8 4
15 11 15 17 0 13 39 70 59 86 8 6 11 18 8 28 -5 13 -22 16 -109 15 -57 -1
-138 -5 -182 -9z"/>
<path d="M3150 2852 c0 -4 -27 -14 -60 -20 -33 -7 -60 -17 -60 -22 0 -4 -15
-13 -33 -19 -48 -16 -137 -88 -137 -111 0 -5 -6 -10 -12 -10 -7 0 -26 -21 -43
-48 -16 -26 -35 -53 -42 -60 -15 -16 -27 -77 -18 -91 16 -26 45 -10 67 37 12
26 28 51 35 55 7 4 13 14 13 21 0 18 94 113 120 121 11 3 20 10 20 15 0 5 17
14 37 21 21 6 43 18 50 25 29 29 331 24 341 -5 2 -6 19 -11 37 -11 23 0 34 5
37 18 9 32 -17 53 -81 65 -34 6 -61 15 -61 19 0 5 -47 8 -105 8 -58 0 -105 -4
-105 -8z"/>
<path d="M1673 2423 c-24 -2 -43 -8 -43 -14 0 -5 -8 -9 -19 -9 -24 0 -90 -28
-108 -46 -8 -8 -20 -14 -26 -14 -7 0 -20 -8 -29 -17 -9 -10 -32 -33 -52 -52
-20 -19 -36 -38 -36 -44 0 -5 -11 -20 -25 -33 -30 -28 -34 -74 -7 -74 15 0 62
48 62 63 0 7 66 77 73 77 3 0 18 11 33 25 15 14 33 25 40 25 8 0 14 4 14 8 0
12 47 32 75 32 14 0 25 5 25 10 0 6 38 10 95 10 57 0 95 -4 95 -10 0 -5 9 -10
20 -10 30 0 110 -23 110 -32 0 -12 73 -29 84 -18 12 12 0 39 -21 47 -10 4 -24
12 -30 19 -7 7 -39 18 -70 25 -32 7 -60 16 -63 20 -7 9 -143 18 -197 12z"/>
<path d="M2340 2290 c-19 -5 -36 -13 -38 -19 -2 -6 -11 -11 -21 -11 -62 0 -49
-128 15 -144 14 -4 31 -11 37 -17 7 -5 21 -16 32 -24 16 -10 20 -25 20 -65 0
-40 -4 -55 -20 -65 -11 -8 -25 -19 -32 -25 -15 -13 -33 -13 -33 0 0 6 -11 10
-25 10 -33 0 -33 -28 0 -64 13 -14 30 -44 36 -66 13 -42 33 -67 85 -108 24
-20 38 -23 83 -19 30 2 57 9 59 15 2 7 13 12 24 12 30 0 104 80 117 126 6 21
11 60 11 87 0 26 3 47 8 47 7 0 32 69 32 90 0 21 -42 9 -70 -20 -60 -62 -175
-64 -208 -5 -9 17 -20 32 -24 33 -12 5 -10 32 2 32 6 0 10 5 10 12 0 6 11 26
25 44 14 18 25 37 25 43 0 6 5 11 10 11 18 0 11 72 -7 86 -20 15 -98 17 -153
4z"/>
</g>
</svg>
